# Blender v2.77 (sub 0) OBJ File: 'model.blend'
# www.blender.org
mtllib model.mtl
v 4.158632 -0.000000 -4.158633
v 4.158632 2.333780 -4.158633
v -4.158632 -0.000000 -4.158633
v -4.158632 2.333780 -4.158633
v -4.158632 2.333780 4.158632
v -4.158632 0.000000 4.158632
v 4.158632 0.000000 4.158632
v 4.158632 2.333780 4.158632
vt 6.4685 1.0811
vt 3.3603 1.0811
vt 3.3603 0.0134
vt 6.4685 0.0134
vt -5.9646 1.0811
vt -5.9646 0.0134
vt -2.8563 0.0134
vt -2.8563 1.0811
vt 0.2520 0.0134
vt 0.2520 1.0811
vt 0.0000 0.0000
vt 0.0000 0.0000
vt 0.0000 0.0000
vt 0.0000 0.0000
vt 0.0000 0.0000
vt 0.0000 0.0000
vt 0.0000 0.0000
vt 0.0000 0.0000
vn 1.0000 0.0000 0.0000
vn 0.0000 0.0000 1.0000
vn -1.0000 0.0000 0.0000
vn 0.0000 0.0000 -1.0000
vn 0.0000 -1.0000 0.0000
vn 0.0000 1.0000 -0.0000
usemtl Wall
s off
f 4/1/1 5/2/1 6/3/1 3/4/1
f 4/5/2 3/6/2 1/7/2 2/8/2
f 1/7/3 7/9/3 8/10/3 2/8/3
f 8/10/4 7/9/4 6/3/4 5/2/4
usemtl Roof
f 8/11/5 5/12/5 4/13/5 2/14/5
usemtl Floor
f 6/15/6 7/16/6 1/17/6 3/18/6
